<?xml version="1.0" encoding="UTF-8"?>
<svg id="Layer_1" data-name="Layer 1" xmlns="http://www.w3.org/2000/svg" viewBox="0 0 576 576">
  <defs>
    <style>
      .cls-1 {
        fill: #231f20;
      }

      .cls-2 {
        fill: #fff;
        stroke: #231f20;
        stroke-miterlimit: 10;
        stroke-width: .5px;
      }
    </style>
  </defs>
  <rect class="cls-1" x="-3.53" y="-3.53" width="579.53" height="579.53"/>
  <g>
    <circle class="cls-2" cx="323.03" cy="189.12" r="33.93"/>
    <polygon class="cls-2" points="226.91 349.06 252.67 349.06 251.09 347.14 251.09 295.85 252.67 293.93 226.91 293.93 226.91 349.06"/>
    <polygon class="cls-2" points="225.56 97.06 226.91 98.49 226.91 111.25 226.92 97.06 225.56 97.06"/>
    <path class="cls-2" d="M251.09,98.49c.63-1.07,1.37-1.39,2.26-1.54l-26.43.11-.02,14.19v77.52h24.19v-90.28Z"/>
    <polygon class="cls-2" points="251.09 188.77 226.91 188.77 226.91 271.98 226.91 278.93 226.91 280.59 252.67 280.59 251.09 278.93 251.09 188.77"/>
    <polygon class="cls-2" points="225.33 280.59 226.91 280.59 226.91 278.93 225.33 280.59"/>
    <path class="cls-2" d="M225.33,276.39h-58.89c-.99,0-5.51,4.11-6.26,5.31-2.72,4.34-2.1,9.65,1.04,13.58.59.74,4.88,4.25,5.22,4.25h60.46v-23.13h-1.58Z"/>
    <path class="cls-2" d="M213.89,101.83l13.03-.24.02-22.86h-59.4c-11.36,2.39-11.69,20.81-1.1,23.1h58.89l.22.22h1.36s0-.47,0-.47l-13.03.24Z"/>
    <path class="cls-2" d="M318.9,78.71l-91.96.02-.02,22.86,41.89-.77c2.28-.07,4.66-.11,7.11-.13h.35s-.35,0-.35,0c22.61-.15,51.29,2.2,65.56,8.01,66.74,27.2,72.61,120.27,9.82,155.91-8.4,4.77-27.21,11.77-36.6,11.77h-87.8v23.13h94.11c26.4,0,62.9-25.3,77.72-46.36,49.33-70.08,4.03-165.7-79.84-174.45Z"/>
    <path class="cls-2" d="M175,405.56c-11.61-7.21-24.24,4.81-14.92,16.93,17.13,22.25,45.94,43.1,65.89,65.14l.38-31.07-51.35-51Z"/>
    <path class="cls-2" d="M303.69,405.28c12.16-7.54,25.39,5.04,15.62,17.72-17.94,23.3-48.1,45.13-69,68.2l-.4-32.53,53.77-53.4Z"/>
    <path class="cls-2" d="M251.09,370.5l1.44-1.44-25.63-.08-.49,80.59-.03,5.55-.03-.03-.4,32.53c1.78,1.97,3.5,3.94,5.14,5.93,6.46,4.97,10.41,4.98,16.87,0l3.05-3.05.08-51.21v-68.8Z"/>
    <path class="cls-2" d="M225.63,343.24h-56.03c-8.98,0-14.48,14-8.37,22.33.86,1.18,5.51,4.76,6.27,4.76h59.41v.06s25.63.08,25.63.08l.13-.15h57.84c.84,0,5.99-3.3,6.86-4.43,6.4-8.24,1.3-22.66-7.91-22.66h-83.82Z"/>
    <circle class="cls-2" cx="323.03" cy="189.12" r="33.93"/>
  </g>
</svg>