<?xml version="1.0" encoding="UTF-8"?>
<svg id="Layer_1" data-name="Layer 1" xmlns="http://www.w3.org/2000/svg" viewBox="0 0 594.45 596.83">
  <defs>
    <style>
      .cls-1 {
        fill: #fff;
      }

      .cls-2 {
        fill: #f4aaba;
      }

      .cls-3 {
        fill: #61cdf6;
      }
    </style>
  </defs>
  <circle class="cls-1" cx="296.48" cy="298.41" r="145.11"/>
  <path id="female" class="cls-3" d="M456.07,297.93c0-87.15-70.64-157.8-157.8-157.8s-157.8,70.64-157.8,157.8c0,79.66,59,145.51,135.71,156.27v36.24h-56.81v44.18h56.81v56.81h44.18v-56.81h56.81v-44.18h-56.81v-36.24c76.7-10.76,135.71-76.61,135.71-156.27ZM184.66,297.93c0-62.75,50.86-113.61,113.61-113.61s113.61,50.86,113.61,113.61-50.86,113.61-113.61,113.61-113.61-50.86-113.61-113.61Z"/>
  <path id="female-2" data-name="female" class="cls-3" d="M317.56,142.63v-36.24h56.81v-44.18h-56.81V5.4h-44.18v56.81h-56.81v44.18h56.81v36.24c-76.7,10.76-135.71,76.61-135.71,156.27,0,87.15,70.64,157.8,157.8,157.8s157.8-70.64,157.8-157.8c0-79.66-59-145.51-135.71-156.27ZM295.47,185.28c62.75,0,113.61,50.86,113.61,113.61s-50.86,113.61-113.61,113.61-113.61-50.86-113.61-113.61,50.86-113.61,113.61-113.61Z"/>
  <path id="female-3" data-name="female" class="cls-3" d="M453.14,320.99h36.24v56.81h44.18v-56.81h56.81s0-44.18,0-44.18h-56.81v-56.81s-44.18,0-44.18,0v56.81h-36.24c-10.76-76.7-76.61-135.71-156.27-135.71-87.15,0-157.8,70.64-157.8,157.8,0,87.15,70.64,157.8,157.8,157.8,79.66,0,145.51-59,156.27-135.71ZM410.49,298.9c0,62.75-50.86,113.61-113.61,113.61-62.75,0-113.61-50.86-113.61-113.61s50.86-113.61,113.61-113.61,113.61,50.86,113.61,113.61Z"/>
  <path id="female-4" data-name="female" class="cls-3" d="M297.58,455.73c87.15,0,157.8-70.64,157.8-157.8s-70.64-157.8-157.8-157.8c-79.66,0-145.51,59-156.27,135.71h-36.24v-56.81s-44.18,0-44.18,0v56.81H4.07s0,44.18,0,44.18h56.81v56.81s44.18,0,44.18,0v-56.81h36.24c10.76,76.7,76.61,135.71,156.27,135.71ZM297.58,184.32c62.75,0,113.61,50.86,113.61,113.61,0,62.75-50.86,113.61-113.61,113.61-62.75,0-113.61-50.86-113.61-113.61,0-62.75,50.86-113.61,113.61-113.61Z"/>
  <g>
    <path id="male" class="cls-2" d="M377.98,41.24v47.69h88.9l-70.23,70.25c-66.73-50.36-162.01-45.12-222.8,15.67-66.52,66.52-66.52,174.34,0,240.86,66.52,66.5,174.33,66.5,240.84,0,60.79-60.79,66.02-156.08,15.68-222.82l70.23-70.23v88.9h47.69V41.24h-170.31ZM380.96,381.98c-47.89,47.89-125.51,47.89-173.4,0-47.9-47.89-47.9-125.52,0-173.41,47.89-47.89,125.51-47.89,173.4,0,47.89,47.89,47.89,125.52,0,173.41Z"/>
    <path id="male-2" data-name="male" class="cls-2" d="M43.2,41.24v170.31s47.69,0,47.69,0v-88.9s70.23,70.23,70.23,70.23c-50.34,66.73-45.11,162.02,15.68,222.82,66.52,66.5,174.33,66.5,240.84,0,66.52-66.52,66.52-174.34,0-240.86-60.79-60.79-156.07-66.02-222.8-15.67l-70.23-70.25h88.9s0-47.69,0-47.69H43.2ZM210.52,208.56c47.89-47.89,125.51-47.89,173.4,0,47.9,47.89,47.9,125.52,0,173.41-47.89,47.89-125.51,47.89-173.4,0-47.89-47.89-47.89-125.52,0-173.41Z"/>
    <path id="male-3" data-name="male" class="cls-2" d="M549.77,555.59v-170.31h-47.69v88.9l-70.23-70.23c50.34-66.73,45.11-162.02-15.68-222.82-66.52-66.5-174.33-66.5-240.84,0-66.52,66.52-66.52,174.34,0,240.86,60.79,60.79,156.07,66.02,222.8,15.67l70.23,70.25h-88.9v47.69h170.31ZM382.45,388.27c-47.89,47.89-125.51,47.89-173.4,0-47.9-47.89-47.9-125.52,0-173.41,47.89-47.89,125.51-47.89,173.4,0,47.89,47.89,47.89,125.52,0,173.41Z"/>
    <path id="male-4" data-name="male" class="cls-2" d="M214.99,555.59v-47.69h-88.9s70.23-70.25,70.23-70.25c66.73,50.36,162.01,45.12,222.8-15.67,66.52-66.52,66.52-174.34,0-240.86-66.52-66.5-174.33-66.5-240.84,0-60.79,60.79-66.02,156.08-15.68,222.82l-70.23,70.23v-88.9h-47.69v170.31h170.31ZM212,214.85c47.89-47.89,125.51-47.89,173.4,0,47.9,47.89,47.9,125.52,0,173.41-47.89,47.89-125.51,47.89-173.4,0-47.89-47.89-47.89-125.52,0-173.41Z"/>
  </g>
</svg>