<?xml version="1.0" encoding="UTF-8"?>
<svg id="_Layer_" data-name=" Layer " xmlns="http://www.w3.org/2000/svg" viewBox="0 0 66 66">
  <defs>
    <style>
      .cls-1 {
        fill: none;
        stroke: #262424;
        stroke-miterlimit: 10;
        stroke-width: .75px;
      }
    </style>
  </defs>
  <path class="cls-1" d="M33,18.75c-.43,0-.78-.35-.78-.78V3.78c0-.43.35-.78.78-.78s.78.35.78.78v14.19c0,.43-.35.78-.78.78h0Z"/>
  <path class="cls-1" d="M33,63c-.43,0-.78-.35-.78-.78v-14.19c0-.43.35-.78.78-.78s.78.35.78.78v14.19c0,.43-.35.78-.78.78Z"/>
  <path class="cls-1" d="M22.37,23.15c-.2,0-.4-.08-.55-.23l-10.04-10.04c-.3-.3-.3-.79,0-1.1.3-.3.79-.3,1.1,0l10.04,10.04c.3.3.3.79,0,1.1-.15.15-.35.23-.55.23h0Z"/>
  <path class="cls-1" d="M53.67,54.44c-.2,0-.4-.08-.55-.23l-10.04-10.04c-.3-.3-.3-.79,0-1.1s.79-.3,1.1,0l10.04,10.04c.3.3.3.79,0,1.1-.15.15-.35.23-.55.23h0Z"/>
  <path class="cls-1" d="M17.97,33.78H3.78c-.43,0-.78-.35-.78-.78s.35-.78.78-.78h14.19c.43,0,.78.35.78.78s-.35.78-.78.78Z"/>
  <path class="cls-1" d="M62.22,33.78h-14.19c-.43,0-.78-.35-.78-.78s.35-.78.78-.78h14.19c.43,0,.78.35.78.78s-.35.78-.78.78Z"/>
  <path class="cls-1" d="M12.34,54.44c-.2,0-.4-.08-.55-.23-.3-.3-.3-.79,0-1.1l10.04-10.04c.3-.3.79-.3,1.1,0,.3.3.3.79,0,1.1l-10.04,10.04c-.15.15-.35.23-.55.23h0Z"/>
  <path class="cls-1" d="M43.63,23.15c-.2,0-.4-.08-.55-.23-.3-.3-.3-.79,0-1.1l10.04-10.04c.3-.3.79-.3,1.1,0s.3.79,0,1.1l-10.04,10.04c-.15.15-.35.23-.55.23h0Z"/>
  <path class="cls-1" d="M33,45.8c-7.06,0-12.8-5.74-12.8-12.8s5.74-12.8,12.8-12.8,12.8,5.74,12.8,12.8-5.74,12.8-12.8,12.8h0ZM33,21.75c-6.2,0-11.25,5.05-11.25,11.25s5.05,11.25,11.25,11.25,11.25-5.05,11.25-11.25-5.05-11.25-11.25-11.25h0Z"/>
  <path class="cls-1" d="M27.25,19.89c-.3,0-.59-.18-.72-.48l-2.72-6.56c-.16-.4.02-.85.42-1.01.4-.16.85.02,1.01.42l2.72,6.56c.16.4-.02.85-.42,1.01-.1.04-.2.06-.3.06h0Z"/>
  <path class="cls-1" d="M41.47,54.22c-.3,0-.59-.18-.72-.48l-2.72-6.56c-.16-.4.02-.85.42-1.01.4-.16.85.02,1.01.42l2.72,6.56c.16.4-.02.85-.42,1.01-.1.04-.2.06-.3.06h0Z"/>
  <path class="cls-1" d="M19.11,28.02c-.1,0-.2-.02-.3-.06l-6.56-2.72c-.4-.16-.58-.62-.42-1.01.16-.4.62-.58,1.01-.42l6.56,2.72c.4.16.58.62.42,1.01-.12.3-.41.48-.72.48Z"/>
  <path class="cls-1" d="M53.44,42.24c-.1,0-.2-.02-.3-.06l-6.56-2.72c-.4-.16-.58-.62-.42-1.01.16-.4.62-.58,1.01-.42l6.56,2.72c.4.16.58.62.42,1.01-.12.3-.41.48-.72.48h0Z"/>
  <path class="cls-1" d="M12.56,42.24c-.3,0-.59-.18-.72-.48-.16-.4.02-.85.42-1.01l6.56-2.72c.4-.16.85.02,1.01.42.16.4-.02.85-.42,1.01l-6.56,2.72c-.1.04-.2.06-.3.06h0Z"/>
  <path class="cls-1" d="M46.89,28.02c-.3,0-.59-.18-.72-.48-.16-.4.02-.85.42-1.01l6.56-2.72c.4-.16.85.02,1.01.42.16.4-.02.85-.42,1.01l-6.56,2.72c-.1.04-.2.06-.3.06Z"/>
  <path class="cls-1" d="M24.53,54.22c-.1,0-.2-.02-.3-.06-.4-.16-.58-.62-.42-1.01l2.72-6.56c.16-.4.62-.58,1.01-.42.4.16.58.62.42,1.01l-2.72,6.56c-.12.3-.41.48-.72.48h0Z"/>
  <path class="cls-1" d="M38.75,19.89c-.1,0-.2-.02-.3-.06-.4-.16-.58-.62-.42-1.01l2.72-6.56c.16-.4.62-.58,1.01-.42.4.16.58.62.42,1.01l-2.72,6.56c-.12.3-.41.48-.72.48Z"/>
</svg>