<?xml version="1.0" encoding="UTF-8"?>
<svg id="Layer_1" data-name="Layer 1" xmlns="http://www.w3.org/2000/svg" viewBox="0 0 369.96 102.58">
  <defs>
    <style>
      .cls-1 {
        fill: #231f20;
      }

      .cls-2 {
        fill: #fff;
      }
    </style>
  </defs>
  <rect class="cls-1" width="369.96" height="102.58"/>
  <g>
    <path class="cls-2" d="M31.66,40.94c-.68,1.7-1.6,3.14-2.75,4.32-1.15,1.18-2.47,2.08-3.95,2.68-1.48.6-3.01.9-4.58.9-2.17,0-3.97-.47-5.4-1.4-1.43-.93-2.62-2.02-3.55-3.25l.05,12.1h-6.1V21.89h6.1v4.4c.96-1.4,2.16-2.58,3.59-3.53s3.21-1.42,5.34-1.42c1.56,0,3.08.3,4.54.9,1.46.6,2.77,1.49,3.92,2.67,1.15,1.18,2.07,2.62,2.77,4.33.7,1.7,1.05,3.65,1.05,5.85s-.34,4.15-1.02,5.85ZM25.98,31.56c-.4-1.05-.94-1.94-1.62-2.67-.68-.73-1.48-1.3-2.4-1.7-.92-.4-1.89-.6-2.92-.6s-2.02.2-2.95.6c-.93.4-1.75.98-2.45,1.73s-1.26,1.64-1.67,2.67c-.42,1.03-.62,2.2-.62,3.5s.21,2.47.62,3.5c.42,1.03.97,1.92,1.67,2.67s1.52,1.33,2.45,1.73c.93.4,1.92.6,2.95.6s2.01-.2,2.92-.6c.92-.4,1.72-.97,2.4-1.7.68-.73,1.22-1.62,1.62-2.67.4-1.05.6-2.23.6-3.53s-.2-2.47-.6-3.53Z"/>
    <path class="cls-2" d="M52.48,48.29h-6.1v-26.4h6.1v5.95c.83-2,2.02-3.6,3.55-4.8,1.53-1.2,3.47-1.75,5.8-1.65v6.4h-.35c-1.33,0-2.55.22-3.65.65-1.1.43-2.05,1.08-2.85,1.95-.8.87-1.42,1.96-1.85,3.28-.43,1.32-.65,2.84-.65,4.58v10.05Z"/>
    <path class="cls-2" d="M99.26,40.44c-.72,1.67-1.7,3.12-2.95,4.38s-2.74,2.24-4.47,2.97c-1.73.73-3.62,1.1-5.65,1.1s-3.86-.36-5.57-1.07c-1.72-.72-3.2-1.7-4.45-2.95s-2.23-2.7-2.92-4.35c-.7-1.65-1.05-3.42-1.05-5.33s.36-3.69,1.08-5.38c.72-1.68,1.7-3.15,2.95-4.4s2.73-2.24,4.45-2.98c1.72-.73,3.59-1.1,5.62-1.1s3.91.36,5.62,1.08c1.72.72,3.2,1.7,4.45,2.95s2.22,2.71,2.92,4.38,1.05,3.45,1.05,5.35-.36,3.68-1.08,5.35ZM93.63,31.89c-.4-1.03-.95-1.94-1.67-2.72-.71-.78-1.56-1.4-2.53-1.85-.98-.45-2.06-.67-3.25-.67s-2.28.23-3.25.67c-.98.45-1.81,1.06-2.51,1.83-.7.77-1.23,1.66-1.59,2.67-.36,1.02-.55,2.11-.55,3.28s.2,2.28.6,3.33.95,1.96,1.66,2.72c.71.77,1.56,1.38,2.53,1.83.98.45,2.05.67,3.21.67,1.22,0,2.33-.22,3.3-.67s1.81-1.06,2.51-1.83c.7-.77,1.23-1.66,1.59-2.67.36-1.02.55-2.11.55-3.28s-.2-2.27-.6-3.3Z"/>
    <path class="cls-2" d="M136.23,53.14c-2.47,2.17-5.97,3.25-10.5,3.25s-8.33-1.05-11.8-3.15l2.25-4.55c1.4.87,2.87,1.55,4.4,2.05,1.53.5,3.2.75,5,.75,2.7,0,4.77-.69,6.2-2.06s2.15-3.4,2.15-6.08v-2.06c-1.1,1.45-2.38,2.63-3.85,3.54-1.47.91-3.28,1.36-5.45,1.36-1.57,0-3.07-.28-4.5-.83-1.43-.55-2.71-1.36-3.83-2.42-1.12-1.07-2.01-2.37-2.67-3.9-.67-1.53-1-3.28-1-5.25s.33-3.72,1-5.25c.67-1.53,1.56-2.83,2.67-3.9,1.12-1.07,2.4-1.88,3.85-2.45,1.45-.57,2.94-.85,4.48-.85,2.23,0,4.08.45,5.52,1.34,1.45.89,2.69,1.96,3.73,3.21v-3.99h6.05v21c0,4.67-1.23,8.08-3.7,10.25ZM133.36,30.79c-.42-.91-.97-1.68-1.67-2.31s-1.53-1.12-2.47-1.46c-.95-.35-1.94-.52-2.98-.52s-2.05.17-2.95.52c-.9.35-1.69.84-2.38,1.46s-1.22,1.39-1.6,2.28c-.38.89-.58,1.89-.58,2.98s.2,2.09.6,2.98c.4.89.93,1.66,1.6,2.31.67.65,1.46,1.14,2.38,1.49.92.35,1.89.52,2.92.52s2.03-.17,2.98-.52c.95-.35,1.77-.84,2.47-1.49s1.26-1.41,1.67-2.28c.42-.88.62-1.86.62-2.96s-.21-2.09-.62-3Z"/>
    <path class="cls-2" d="M161.08,48.29h-6.1v-26.4h6.1v5.95c.83-2,2.02-3.6,3.55-4.8,1.53-1.2,3.47-1.75,5.8-1.65v6.4h-.35c-1.33,0-2.55.22-3.65.65-1.1.43-2.05,1.08-2.85,1.95-.8.87-1.42,1.96-1.85,3.28-.43,1.32-.65,2.84-.65,4.58v10.05Z"/>
    <path class="cls-2" d="M189.43,42.21c1.37,1.15,3.03,1.73,5,1.73,1.5,0,2.8-.27,3.9-.8,1.1-.53,2.18-1.32,3.25-2.35l3.55,3.15c-1.27,1.5-2.78,2.7-4.53,3.6s-3.84,1.35-6.27,1.35c-1.9,0-3.68-.33-5.33-1-1.65-.67-3.08-1.6-4.3-2.8-1.22-1.2-2.18-2.64-2.88-4.33-.7-1.68-1.05-3.56-1.05-5.62,0-1.9.32-3.68.95-5.35.63-1.67,1.53-3.12,2.67-4.38,1.15-1.25,2.51-2.24,4.08-2.98,1.57-.73,3.3-1.1,5.2-1.1,2.1,0,3.94.38,5.53,1.15,1.58.77,2.9,1.8,3.95,3.1,1.05,1.3,1.84,2.82,2.38,4.55.53,1.73.8,3.55.8,5.45,0,.27,0,.53-.03.8-.02.27-.04.55-.08.85h-19.4c.37,2.17,1.23,3.83,2.6,4.97ZM200.33,33.24c-.1-.97-.32-1.88-.65-2.73-.33-.85-.78-1.58-1.35-2.2-.57-.62-1.24-1.11-2.03-1.47-.78-.37-1.67-.55-2.67-.55-1.87,0-3.41.64-4.62,1.92-1.22,1.28-1.96,2.96-2.23,5.03h13.55Z"/>
    <path class="cls-2" d="M238.03,44.14c-.5,1.03-1.19,1.89-2.08,2.58-.88.68-1.92,1.2-3.12,1.55-1.2.35-2.48.53-3.85.53-1.9,0-3.82-.33-5.77-1s-3.76-1.65-5.42-2.95l2.7-4.1c1.43,1.07,2.89,1.88,4.38,2.42s2.91.83,4.28.83,2.31-.26,3.03-.78c.72-.52,1.07-1.21,1.07-2.08v-.1c0-.5-.16-.93-.47-1.3-.32-.37-.75-.69-1.3-.98-.55-.28-1.18-.53-1.9-.75-.72-.22-1.46-.44-2.22-.67-.97-.3-1.94-.63-2.92-1-.98-.37-1.87-.84-2.65-1.42s-1.42-1.3-1.92-2.15c-.5-.85-.75-1.91-.75-3.17v-.1c0-1.23.24-2.35.72-3.35s1.15-1.85,2-2.55c.85-.7,1.85-1.23,3-1.6,1.15-.37,2.38-.55,3.67-.55,1.67,0,3.35.27,5.05.8,1.7.53,3.25,1.27,4.65,2.2l-2.4,4.3c-1.27-.77-2.55-1.38-3.85-1.83s-2.5-.67-3.6-.67c-1.17,0-2.08.25-2.73.75-.65.5-.97,1.13-.97,1.9v.1c0,.47.17.88.5,1.22.33.35.78.67,1.33.95s1.18.55,1.9.8,1.46.49,2.23.72c.97.3,1.93.65,2.9,1.05.97.4,1.84.89,2.62,1.47.78.58,1.43,1.29,1.93,2.12.5.83.75,1.85.75,3.05v.1c0,1.4-.25,2.62-.75,3.65Z"/>
    <path class="cls-2" d="M270.03,44.14c-.5,1.03-1.19,1.89-2.08,2.58-.88.68-1.92,1.2-3.12,1.55-1.2.35-2.48.53-3.85.53-1.9,0-3.82-.33-5.77-1s-3.76-1.65-5.42-2.95l2.7-4.1c1.43,1.07,2.89,1.88,4.38,2.42s2.91.83,4.28.83,2.31-.26,3.03-.78c.72-.52,1.07-1.21,1.07-2.08v-.1c0-.5-.16-.93-.47-1.3-.32-.37-.75-.69-1.3-.98-.55-.28-1.18-.53-1.9-.75-.72-.22-1.46-.44-2.22-.67-.97-.3-1.94-.63-2.92-1-.98-.37-1.87-.84-2.65-1.42s-1.42-1.3-1.92-2.15c-.5-.85-.75-1.91-.75-3.17v-.1c0-1.23.24-2.35.72-3.35s1.15-1.85,2-2.55c.85-.7,1.85-1.23,3-1.6,1.15-.37,2.38-.55,3.67-.55,1.67,0,3.35.27,5.05.8,1.7.53,3.25,1.27,4.65,2.2l-2.4,4.3c-1.27-.77-2.55-1.38-3.85-1.83s-2.5-.67-3.6-.67c-1.17,0-2.08.25-2.73.75-.65.5-.97,1.13-.97,1.9v.1c0,.47.17.88.5,1.22.33.35.78.67,1.33.95s1.18.55,1.9.8,1.46.49,2.23.72c.97.3,1.93.65,2.9,1.05.97.4,1.84.89,2.62,1.47.78.58,1.43,1.29,1.93,2.12.5.83.75,1.85.75,3.05v.1c0,1.4-.25,2.62-.75,3.65Z"/>
    <path class="cls-2" d="M284.53,17.84v-5.75h6.55v5.75h-6.55ZM284.78,48.29v-26.4h6.1v26.4h-6.1Z"/>
    <path class="cls-2" d="M324.48,21.89h6.35l-10.8,26.6h-5.45l-10.85-26.6h6.5l7.1,19.4,7.15-19.4Z"/>
    <path class="cls-2" d="M349.18,42.21c1.37,1.15,3.03,1.73,5,1.73,1.5,0,2.8-.27,3.9-.8,1.1-.53,2.18-1.32,3.25-2.35l3.55,3.15c-1.27,1.5-2.78,2.7-4.53,3.6s-3.84,1.35-6.27,1.35c-1.9,0-3.68-.33-5.33-1-1.65-.67-3.08-1.6-4.3-2.8-1.22-1.2-2.18-2.64-2.88-4.33-.7-1.68-1.05-3.56-1.05-5.62,0-1.9.32-3.68.95-5.35.63-1.67,1.53-3.12,2.67-4.38,1.15-1.25,2.51-2.24,4.08-2.98,1.57-.73,3.3-1.1,5.2-1.1,2.1,0,3.94.38,5.53,1.15,1.58.77,2.9,1.8,3.95,3.1,1.05,1.3,1.84,2.82,2.38,4.55.53,1.73.8,3.55.8,5.45,0,.27,0,.53-.03.8-.02.27-.04.55-.08.85h-19.4c.37,2.17,1.23,3.83,2.6,4.97ZM360.08,33.24c-.1-.97-.32-1.88-.65-2.73-.33-.85-.78-1.58-1.35-2.2-.57-.62-1.24-1.11-2.03-1.47-.78-.37-1.67-.55-2.67-.55-1.87,0-3.41.64-4.62,1.92-1.22,1.28-1.96,2.96-2.23,5.03h13.55Z"/>
    <path class="cls-2" d="M113.38,80.94c-.68,1.7-1.6,3.14-2.75,4.32-1.15,1.18-2.47,2.08-3.95,2.68-1.48.6-3.01.9-4.58.9-2.17,0-3.97-.47-5.4-1.4-1.43-.93-2.62-2.02-3.55-3.25l.05,12.1h-6.1v-34.4h6.1v4.4c.96-1.4,2.16-2.58,3.59-3.53,1.43-.95,3.21-1.42,5.34-1.42,1.56,0,3.08.3,4.54.9,1.46.6,2.77,1.49,3.92,2.67,1.15,1.18,2.07,2.62,2.77,4.33.7,1.7,1.05,3.65,1.05,5.85s-.34,4.15-1.02,5.85ZM107.71,71.57c-.4-1.05-.94-1.94-1.62-2.68-.68-.73-1.48-1.3-2.4-1.7-.92-.4-1.89-.6-2.92-.6s-2.02.2-2.95.6c-.93.4-1.75.97-2.45,1.72s-1.26,1.64-1.67,2.67c-.42,1.03-.62,2.2-.62,3.5s.21,2.47.62,3.5c.42,1.03.97,1.92,1.67,2.67s1.52,1.33,2.45,1.73c.93.4,1.92.6,2.95.6s2.01-.2,2.92-.6c.92-.4,1.72-.97,2.4-1.7.68-.73,1.22-1.62,1.62-2.67.4-1.05.6-2.23.6-3.53s-.2-2.47-.6-3.52Z"/>
    <path class="cls-2" d="M135.31,82.21c1.37,1.15,3.03,1.73,5,1.73,1.5,0,2.8-.27,3.9-.8,1.1-.53,2.18-1.32,3.25-2.35l3.55,3.15c-1.27,1.5-2.78,2.7-4.53,3.6s-3.84,1.35-6.27,1.35c-1.9,0-3.68-.33-5.33-1-1.65-.67-3.08-1.6-4.3-2.8-1.22-1.2-2.18-2.64-2.88-4.33-.7-1.68-1.05-3.56-1.05-5.62,0-1.9.32-3.68.95-5.35.63-1.67,1.53-3.12,2.67-4.38,1.15-1.25,2.51-2.24,4.08-2.97,1.57-.73,3.3-1.1,5.2-1.1,2.1,0,3.94.38,5.53,1.15,1.58.77,2.9,1.8,3.95,3.1,1.05,1.3,1.84,2.82,2.38,4.55.53,1.73.8,3.55.8,5.45,0,.27,0,.53-.03.8-.02.27-.04.55-.08.85h-19.4c.37,2.17,1.23,3.83,2.6,4.97ZM146.21,73.24c-.1-.97-.32-1.88-.65-2.73-.33-.85-.78-1.58-1.35-2.2-.57-.62-1.24-1.11-2.03-1.48-.78-.37-1.67-.55-2.67-.55-1.87,0-3.41.64-4.62,1.92-1.22,1.28-1.96,2.96-2.23,5.03h13.55Z"/>
    <path class="cls-2" d="M185.66,88.29v-4.4c-.96,1.37-2.17,2.53-3.62,3.5-1.45.97-3.23,1.45-5.36,1.45-1.56,0-3.08-.3-4.54-.9-1.46-.6-2.76-1.49-3.89-2.68-1.13-1.18-2.04-2.62-2.74-4.32-.7-1.7-1.05-3.65-1.05-5.85s.34-4.15,1.02-5.85,1.59-3.14,2.72-4.33c1.13-1.18,2.44-2.08,3.92-2.67,1.48-.6,3-.9,4.56-.9,2.16,0,3.96.47,5.39,1.4,1.43.93,2.63,2.02,3.59,3.25v-14.2h6.1v36.5h-6.1ZM185.13,71.59c-.42-1.03-.97-1.92-1.67-2.67s-1.51-1.33-2.44-1.72c-.93-.4-1.89-.6-2.89-.6s-2,.19-2.92.58c-.91.38-1.72.94-2.42,1.67-.7.73-1.25,1.62-1.64,2.67-.4,1.05-.6,2.24-.6,3.58s.2,2.48.6,3.53.95,1.94,1.64,2.67c.7.73,1.5,1.3,2.42,1.7.91.4,1.89.6,2.92.6s1.96-.2,2.89-.6c.93-.4,1.74-.98,2.44-1.73s1.25-1.64,1.67-2.67c.42-1.03.62-2.2.62-3.5s-.21-2.47-.62-3.5Z"/>
    <path class="cls-2" d="M222.96,88.29v-3.25c-.9,1.07-2.05,1.97-3.45,2.7-1.4.73-3.1,1.1-5.1,1.1-1.27,0-2.47-.17-3.6-.52-1.13-.35-2.12-.87-2.97-1.55-.85-.68-1.53-1.53-2.05-2.55-.52-1.02-.78-2.19-.78-3.52v-.1c0-1.43.27-2.68.8-3.75.53-1.07,1.28-1.95,2.23-2.65.95-.7,2.08-1.23,3.4-1.58,1.32-.35,2.74-.53,4.28-.53s2.96.1,4.08.3c1.12.2,2.19.47,3.22.8v-.65c0-1.83-.56-3.23-1.67-4.2-1.12-.97-2.73-1.45-4.83-1.45-1.5,0-2.83.15-4,.45-1.17.3-2.35.7-3.55,1.2l-1.65-4.85c1.47-.67,2.97-1.2,4.5-1.6,1.53-.4,3.38-.6,5.55-.6,3.93,0,6.85.97,8.75,2.92,1.9,1.95,2.85,4.69,2.85,8.22v15.65h-6ZM223.11,77.09c-.77-.3-1.67-.55-2.72-.75s-2.16-.3-3.33-.3c-1.9,0-3.38.37-4.45,1.1-1.07.73-1.6,1.78-1.6,3.15v.1c0,1.27.49,2.23,1.47,2.9.98.67,2.19,1,3.62,1,1,0,1.93-.13,2.78-.4.85-.27,1.59-.64,2.22-1.12.63-.48,1.12-1.07,1.48-1.75.35-.68.52-1.44.52-2.27v-1.65Z"/>
    <path class="cls-2" d="M244.01,88.29v-36.5h6.1v36.5h-6.1Z"/>
    <path class="cls-2" d="M283.56,84.14c-.5,1.03-1.19,1.89-2.08,2.58-.88.68-1.92,1.2-3.12,1.55-1.2.35-2.48.53-3.85.53-1.9,0-3.82-.33-5.77-1s-3.76-1.65-5.42-2.95l2.7-4.1c1.43,1.07,2.89,1.88,4.38,2.42s2.91.83,4.28.83,2.31-.26,3.03-.78c.72-.52,1.07-1.21,1.07-2.08v-.1c0-.5-.16-.93-.47-1.3-.32-.37-.75-.69-1.3-.98-.55-.28-1.18-.53-1.9-.75-.72-.22-1.46-.44-2.22-.67-.97-.3-1.94-.63-2.92-1-.98-.37-1.87-.84-2.65-1.42-.78-.58-1.42-1.3-1.92-2.15-.5-.85-.75-1.91-.75-3.17v-.1c0-1.23.24-2.35.72-3.35s1.15-1.85,2-2.55c.85-.7,1.85-1.23,3-1.6,1.15-.37,2.38-.55,3.67-.55,1.67,0,3.35.27,5.05.8,1.7.53,3.25,1.27,4.65,2.2l-2.4,4.3c-1.27-.77-2.55-1.38-3.85-1.83s-2.5-.67-3.6-.67c-1.17,0-2.08.25-2.73.75-.65.5-.97,1.13-.97,1.9v.1c0,.47.17.88.5,1.22.33.35.78.67,1.33.95s1.18.55,1.9.8,1.46.49,2.23.73c.97.3,1.93.65,2.9,1.05.97.4,1.84.89,2.62,1.47.78.58,1.43,1.29,1.93,2.12.5.83.75,1.85.75,3.05v.1c0,1.4-.25,2.62-.75,3.65Z"/>
  </g>
</svg>