<?xml version="1.0" encoding="UTF-8"?>
<svg id="Layer_1" data-name="Layer 1" xmlns="http://www.w3.org/2000/svg" viewBox="0 0 363.59 552.95">
  <defs>
    <style>
      .cls-1 {
        fill: #f8ee48;
      }

      .cls-1, .cls-2, .cls-3, .cls-4, .cls-5, .cls-6, .cls-7, .cls-8, .cls-9, .cls-10, .cls-11 {
        stroke-miterlimit: 10;
      }

      .cls-1, .cls-2, .cls-3, .cls-4, .cls-5, .cls-6, .cls-7, .cls-8, .cls-9, .cls-11 {
        stroke: #fff;
      }

      .cls-1, .cls-3, .cls-4, .cls-5, .cls-6, .cls-7, .cls-8, .cls-9, .cls-11 {
        stroke-width: .5px;
      }

      .cls-2 {
        stroke-width: 6px;
      }

      .cls-2, .cls-10 {
        fill: none;
      }

      .cls-12 {
        fill: #eda4b1;
      }

      .cls-3 {
        fill: #ee292d;
      }

      .cls-4 {
        fill: #f79034;
      }

      .cls-5 {
        fill: #f09cb4;
      }

      .cls-13 {
        fill: #73c7d6;
      }

      .cls-6 {
        fill: #229145;
      }

      .cls-7 {
        fill: #7c5431;
      }

      .cls-8 {
        fill: #293790;
      }

      .cls-9 {
        fill: #131b1b;
      }

      .cls-10 {
        stroke: #604081;
        stroke-width: 5px;
      }

      .cls-11 {
        fill: #8f278d;
      }
    </style>
  </defs>
  <circle class="cls-2" cx="229.4" cy="148.1" r="44.04"/>
  <polygon class="cls-6" points="104.61 355.75 138.06 355.75 136.01 353.25 136.01 286.66 138.06 284.17 104.61 284.17 104.61 355.75"/>
  <polygon class="cls-12" points="102.85 28.6 104.61 30.45 104.61 47.01 104.63 28.59 102.85 28.6"/>
  <path class="cls-13" d="M136.01,30.45c.81-1.39,1.78-1.8,2.94-2l-34.31.15-.02,18.42v100.63h31.4V30.45Z"/>
  <polygon class="cls-5" points="136.01 147.65 104.61 147.65 104.61 255.68 104.61 264.69 104.61 266.85 138.06 266.85 136.01 264.69 136.01 147.65"/>
  <polygon class="cls-12" points="102.56 266.85 104.61 266.85 104.61 264.69 102.56 266.85"/>
  <path class="cls-1" d="M102.56,261.4H26.12c-1.29,0-7.15,5.34-8.13,6.89-3.53,5.63-2.73,12.53,1.35,17.63.77.96,6.33,5.52,6.77,5.52h78.5v-30.03h-2.05Z"/>
  <path class="cls-3" d="M87.71,34.79l16.91-.31.03-29.67-77.11.02c-14.75,3.09-15.18,26.99-1.43,29.97h76.45l.29.29h1.77s0-.6,0-.6l-16.91.31Z"/>
  <path class="cls-4" d="M224.04,4.78l-119.38.03-.03,29.67,54.39-1c2.96-.09,6.05-.15,9.23-.17h.45s-.45,0-.45,0c29.35-.19,66.59,2.85,85.12,10.4,86.64,35.32,94.27,156.14,12.75,202.41-10.9,6.19-35.32,15.28-47.51,15.28h-113.99v30.03h122.18c34.27,0,81.65-32.85,100.9-60.19,64.04-90.98,5.23-215.11-103.65-226.47Z"/>
  <path class="cls-7" d="M34.08,424.08c-15.78-9.79-32.96,6.54-20.28,23.01,23.29,30.25,62.44,58.59,89.57,88.54l.51-42.23-69.81-69.32Z"/>
  <path class="cls-9" d="M204.29,428.73c15.78-9.79,32.96,6.54,20.28,23.01-23.29,30.25-62.44,58.59-89.57,88.54l-.51-42.23,69.81-69.32Z"/>
  <path class="cls-11" d="M136.01,383.58l1.87-1.87-33.27-.1-.64,104.63-.04,7.21-.04-.04-.51,42.23c2.31,2.55,4.55,5.12,6.67,7.7,8.38,6.45,13.51,6.46,21.91,0l3.96-3.96.1-66.48v-89.31Z"/>
  <path class="cls-8" d="M102.95,348.19H30.21c-11.66,0-18.8,18.18-10.87,28.99,1.12,1.53,7.15,6.18,8.14,6.18h77.13v.08s33.27.11,33.27.11l.17-.19h75.08c1.09,0,7.77-4.29,8.9-5.75,8.3-10.7,1.68-29.42-10.27-29.42h-108.82Z"/>
  <circle class="cls-10" cx="229.4" cy="148.1" r="44.04"/>
</svg>