<?xml version="1.0" encoding="UTF-8"?>
<svg id="Layer_1" data-name="Layer 1" xmlns="http://www.w3.org/2000/svg" viewBox="0 0 369.96 102.58">
  <defs>
    <style>
      .cls-1 {
        fill: #231f20;
        stroke: #fff;
        stroke-miterlimit: 10;
        stroke-width: .25px;
      }
    </style>
  </defs>
  <path class="cls-1" d="M5.23,21.89h6.1v4.4c1.95-2.75,4.65-4.95,9-4.95,6.2,0,12.25,4.9,12.25,13.7v.1c0,8.8-6,13.7-12.25,13.7-4.4,0-7.15-2.2-9-4.65v12.1h-6.1V21.89ZM26.43,35.14v-.1c0-5.1-3.5-8.45-7.55-8.45s-7.7,3.4-7.7,8.45v.1c0,5.05,3.55,8.45,7.7,8.45s7.55-3.25,7.55-8.45Z"/>
  <path class="cls-1" d="M46.28,21.89h6.1v5.95c1.65-4,4.7-6.65,9.35-6.45v6.4h-.35c-5.35,0-9,3.45-9,10.45v10.05h-6.1v-26.4Z"/>
  <path class="cls-1" d="M72.13,35.24v-.1c0-7.55,6-13.8,14.1-13.8s14.05,6.15,14.05,13.7v.1c0,7.45-6,13.75-14.15,13.75s-14-6.15-14-13.65ZM94.23,35.24v-.1c0-4.65-3.35-8.5-8.1-8.5s-7.95,3.8-7.95,8.4v.1c0,4.6,3.4,8.45,8.05,8.45,4.95,0,8-3.8,8-8.35Z"/>
  <path class="cls-1" d="M113.88,53.24l2.25-4.55c2.85,1.75,5.8,2.75,9.4,2.75,5.4,0,8.35-2.7,8.35-8.05v-2c-2.2,2.8-4.95,4.8-9.3,4.8-6.25,0-12-4.6-12-12.35v-.1c0-7.8,5.8-12.4,12-12.4,4.45,0,7.2,2.05,9.25,4.5v-3.95h6.05v21c0,4.4-1.1,7.7-3.35,9.95-2.4,2.4-6.05,3.55-10.85,3.55-4.4,0-8.35-1.05-11.8-3.15ZM133.93,33.79v-.1c0-4.25-3.55-7.2-7.75-7.2s-7.5,2.85-7.5,7.2v.1c0,4.3,3.35,7.25,7.5,7.25s7.75-2.95,7.75-7.25Z"/>
  <path class="cls-1" d="M154.93,21.89h6.1v5.95c1.65-4,4.7-6.65,9.35-6.45v6.4h-.35c-5.35,0-9,3.45-9,10.45v10.05h-6.1v-26.4Z"/>
  <path class="cls-1" d="M180.78,35.19v-.1c0-7.6,5.35-13.75,12.9-13.75,8.4,0,12.65,6.6,12.65,14.2,0,.55-.05,1.1-.1,1.7h-19.4c.65,4.35,3.65,6.7,7.6,6.7,3,0,5-1.1,7.15-3.15l3.55,3.15c-2.55,3-5.95,4.95-10.8,4.95-7.6,0-13.55-5.55-13.55-13.7ZM200.33,33.24c-.4-3.85-2.7-6.95-6.7-6.95-3.75,0-6.3,2.8-6.85,6.95h13.55Z"/>
  <path class="cls-1" d="M217.78,44.84l2.7-4.1c2.95,2.15,5.9,3.25,8.65,3.25,2.6,0,4.1-1.1,4.1-2.85v-.1c0-2-2.8-2.75-5.9-3.7-3.85-1.05-8.25-2.7-8.25-7.7v-.1c0-5.05,4.15-8.1,9.4-8.1,3.35,0,6.9,1.15,9.7,3l-2.4,4.3c-2.55-1.55-5.25-2.5-7.45-2.5-2.35,0-3.7,1.15-3.7,2.6v.1c0,1.9,2.85,2.8,5.95,3.75,3.8,1.2,8.2,2.95,8.2,7.7v.1c0,5.55-4.3,8.3-9.8,8.3-3.8,0-7.85-1.3-11.2-3.95Z"/>
  <path class="cls-1" d="M249.83,44.84l2.7-4.1c2.95,2.15,5.9,3.25,8.65,3.25,2.6,0,4.1-1.1,4.1-2.85v-.1c0-2-2.8-2.75-5.9-3.7-3.85-1.05-8.25-2.7-8.25-7.7v-.1c0-5.05,4.15-8.1,9.4-8.1,3.35,0,6.9,1.15,9.7,3l-2.4,4.3c-2.55-1.55-5.25-2.5-7.45-2.5-2.35,0-3.7,1.15-3.7,2.6v.1c0,1.9,2.85,2.8,5.95,3.75,3.8,1.2,8.2,2.95,8.2,7.7v.1c0,5.55-4.3,8.3-9.8,8.3-3.8,0-7.85-1.3-11.2-3.95Z"/>
  <path class="cls-1" d="M284.63,12.09h6.5v5.75h-6.5v-5.75ZM284.83,21.89h6.1v26.4h-6.1v-26.4Z"/>
  <path class="cls-1" d="M303.83,21.89h6.5l7.1,19.4,7.15-19.4h6.35l-10.8,26.6h-5.45l-10.85-26.6Z"/>
  <path class="cls-1" d="M340.63,35.19v-.1c0-7.6,5.35-13.75,12.9-13.75,8.4,0,12.65,6.6,12.65,14.2,0,.55-.05,1.1-.1,1.7h-19.4c.65,4.35,3.65,6.7,7.6,6.7,3,0,5-1.1,7.15-3.15l3.55,3.15c-2.55,3-5.95,4.95-10.8,4.95-7.6,0-13.55-5.55-13.55-13.7ZM360.18,33.24c-.4-3.85-2.7-6.95-6.7-6.95-3.75,0-6.3,2.8-6.85,6.95h13.55Z"/>
  <path class="cls-1" d="M86.98,61.89h6.1v4.4c1.95-2.75,4.65-4.95,9-4.95,6.2,0,12.25,4.9,12.25,13.7v.1c0,8.8-6,13.7-12.25,13.7-4.4,0-7.15-2.2-9-4.65v12.1h-6.1v-34.4ZM108.18,75.14v-.1c0-5.1-3.5-8.45-7.55-8.45s-7.7,3.4-7.7,8.45v.1c0,5.05,3.55,8.45,7.7,8.45s7.55-3.25,7.55-8.45Z"/>
  <path class="cls-1" d="M126.63,75.19v-.1c0-7.6,5.35-13.75,12.9-13.75,8.4,0,12.65,6.6,12.65,14.2,0,.55-.05,1.1-.1,1.7h-19.4c.65,4.35,3.65,6.7,7.6,6.7,3,0,5-1.1,7.15-3.15l3.55,3.15c-2.55,3-5.95,4.95-10.8,4.95-7.6,0-13.55-5.55-13.55-13.7ZM146.18,73.24c-.4-3.85-2.7-6.95-6.7-6.95-3.75,0-6.3,2.8-6.85,6.95h13.55Z"/>
  <path class="cls-1" d="M164.43,75.14v-.1c0-8.8,5.95-13.7,12.25-13.7,4.3,0,7.15,2.15,9,4.65v-14.2h6.05v36.5h-6.05v-4.4c-1.95,2.75-4.75,4.95-9,4.95-6.2,0-12.25-4.9-12.25-13.7ZM185.78,75.14v-.1c0-5.1-3.6-8.45-7.65-8.45s-7.6,3.25-7.6,8.45v.1c0,5.1,3.45,8.45,7.6,8.45s7.65-3.4,7.65-8.45Z"/>
  <path class="cls-1" d="M205.03,80.69v-.1c0-5.75,4.5-8.5,10.95-8.5,3,0,5.05.45,7.1,1.1v-.65c0-3.8-2.3-5.75-6.55-5.75-3,0-5.15.65-7.55,1.65l-1.65-4.75c2.95-1.25,5.8-2.15,10-2.15,3.95,0,6.85,1,8.75,2.95,1.95,1.95,2.85,4.7,2.85,8.15v15.65h-5.9v-3.3c-1.8,2.15-4.55,3.85-8.6,3.85-4.95,0-9.4-2.8-9.4-8.15ZM223.18,78.79v-1.8c-1.55-.6-3.6-1.05-6-1.05-3.95,0-6.2,1.6-6.2,4.4v.1c0,2.55,2.2,4,5.15,4,4,0,7.05-2.25,7.05-5.65Z"/>
  <path class="cls-1" d="M243.98,51.79h6.1v36.5h-6.1v-36.5Z"/>
  <path class="cls-1" d="M263.33,84.84l2.7-4.1c2.95,2.15,5.9,3.25,8.65,3.25,2.6,0,4.1-1.1,4.1-2.85v-.1c0-2-2.8-2.75-5.9-3.7-3.85-1.05-8.25-2.7-8.25-7.7v-.1c0-5.05,4.15-8.1,9.4-8.1,3.35,0,6.9,1.15,9.7,3l-2.4,4.3c-2.55-1.55-5.25-2.5-7.45-2.5-2.35,0-3.7,1.15-3.7,2.6v.1c0,1.9,2.85,2.8,5.95,3.75,3.8,1.2,8.2,2.95,8.2,7.7v.1c0,5.55-4.3,8.3-9.8,8.3-3.8,0-7.85-1.3-11.2-3.95Z"/>
</svg>