<?xml version="1.0" encoding="UTF-8"?>
<svg id="Layer_1" data-name="Layer 1" xmlns="http://www.w3.org/2000/svg" viewBox="0 0 363.59 552.95">
  <defs>
    <style>
      .cls-1 {
        fill: #fff;
        stroke: #231f20;
        stroke-miterlimit: 10;
        stroke-width: .5px;
      }
    </style>
  </defs>
  <circle class="cls-1" cx="227.28" cy="148.1" r="44.04"/>
  <polygon class="cls-1" points="102.48 355.75 135.93 355.75 133.88 353.25 133.88 286.66 135.93 284.17 102.48 284.17 102.48 355.75"/>
  <polygon class="cls-1" points="100.73 28.6 102.48 30.45 102.48 47.01 102.5 28.59 100.73 28.6"/>
  <path class="cls-1" d="M133.88,30.45c.81-1.39,1.78-1.8,2.94-2l-34.31.15-.02,18.42v100.63h31.4V30.45Z"/>
  <polygon class="cls-1" points="133.88 147.65 102.48 147.65 102.48 255.68 102.48 264.69 102.48 266.85 135.93 266.85 133.88 264.69 133.88 147.65"/>
  <polygon class="cls-1" points="100.44 266.85 102.48 266.85 102.48 264.69 100.44 266.85"/>
  <path class="cls-1" d="M100.44,261.4H23.99c-1.29,0-7.15,5.34-8.13,6.89-3.53,5.63-2.73,12.53,1.35,17.63.77.96,6.33,5.52,6.77,5.52h78.5v-30.03h-2.05Z"/>
  <path class="cls-1" d="M85.59,34.79l16.91-.31.03-29.67-77.11.02c-14.75,3.09-15.18,26.99-1.43,29.97h76.45l.29.29h1.77s0-.6,0-.6l-16.91.31Z"/>
  <path class="cls-1" d="M221.91,4.78l-119.38.03-.03,29.67,54.39-1c2.96-.09,6.05-.15,9.23-.17h.45s-.45,0-.45,0c29.35-.19,66.59,2.85,85.12,10.4,86.64,35.32,94.27,156.14,12.75,202.41-10.9,6.19-35.32,15.28-47.51,15.28h-113.99v30.03h122.18c34.27,0,81.65-32.85,100.9-60.19,64.04-90.98,5.23-215.11-103.65-226.47Z"/>
  <path class="cls-1" d="M35.09,429.1c-15.07-9.35-31.47,6.25-19.37,21.97,22.24,28.89,59.63,55.95,85.54,84.56l.49-40.33-66.67-66.2Z"/>
  <path class="cls-1" d="M202.17,428.73c15.78-9.79,32.96,6.54,20.28,23.01-23.29,30.25-62.44,58.59-89.57,88.54l-.51-42.23,69.81-69.32Z"/>
  <path class="cls-1" d="M133.88,383.58l1.87-1.87-33.27-.1-.64,104.63-.04,7.21-.04-.04-.51,42.23c2.31,2.55,4.55,5.12,6.67,7.7,8.38,6.45,13.51,6.46,21.91,0l3.96-3.96.1-66.48v-89.31Z"/>
  <path class="cls-1" d="M100.83,348.19H28.08c-11.66,0-18.8,18.18-10.87,28.99,1.12,1.53,7.15,6.18,8.14,6.18h77.13v.08s33.27.11,33.27.11l.17-.19h75.08c1.09,0,7.77-4.29,8.9-5.75,8.3-10.7,1.68-29.42-10.27-29.42h-108.82Z"/>
  <circle class="cls-1" cx="227.28" cy="148.1" r="44.04"/>
</svg>